<mxfile host="app.diagrams.net" modified="2022-04-27T05:37:41.095Z" agent="5.0 (Macintosh; Intel Mac OS X 10_15_7) AppleWebKit/537.36 (KHTML, like Gecko) Chrome/100.0.4896.127 Safari/537.36" etag="dmEKhVYio-RZhkoNXfT8" version="17.4.6" type="github">
  <diagram id="C5RBs43oDa-KdzZeNtuy" name="Page-1">
    <mxGraphModel dx="1666" dy="805" grid="1" gridSize="10" guides="1" tooltips="1" connect="1" arrows="1" fold="1" page="1" pageScale="1" pageWidth="1169" pageHeight="827" math="0" shadow="0">
      <root>
        <mxCell id="WIyWlLk6GJQsqaUBKTNV-0" />
        <mxCell id="WIyWlLk6GJQsqaUBKTNV-1" parent="WIyWlLk6GJQsqaUBKTNV-0" />
        <mxCell id="ySn6C3Ql4K5Sra8jGcaf-0" value="&lt;font style=&quot;font-size: 10px&quot;&gt;Web clients etc&lt;/font&gt;" style="ellipse;shape=cloud;whiteSpace=wrap;html=1;" parent="WIyWlLk6GJQsqaUBKTNV-1" vertex="1">
          <mxGeometry y="304" width="95" height="60" as="geometry" />
        </mxCell>
        <mxCell id="ySn6C3Ql4K5Sra8jGcaf-1" value="&lt;font style=&quot;font-size: 10px&quot;&gt;Mobile&lt;/font&gt;" style="ellipse;shape=cloud;whiteSpace=wrap;html=1;" parent="WIyWlLk6GJQsqaUBKTNV-1" vertex="1">
          <mxGeometry y="140" width="80" height="60" as="geometry" />
        </mxCell>
        <mxCell id="ySn6C3Ql4K5Sra8jGcaf-4" value="load balancer" style="rounded=0;whiteSpace=wrap;html=1;fontSize=10;" parent="WIyWlLk6GJQsqaUBKTNV-1" vertex="1">
          <mxGeometry x="200" y="110" width="40" height="380" as="geometry" />
        </mxCell>
        <mxCell id="ySn6C3Ql4K5Sra8jGcaf-5" value="" style="endArrow=classic;html=1;rounded=0;fontSize=10;exitX=0.96;exitY=0.7;exitDx=0;exitDy=0;exitPerimeter=0;entryX=0.025;entryY=0.321;entryDx=0;entryDy=0;entryPerimeter=0;" parent="WIyWlLk6GJQsqaUBKTNV-1" source="ySn6C3Ql4K5Sra8jGcaf-1" edge="1" target="ySn6C3Ql4K5Sra8jGcaf-4">
          <mxGeometry width="50" height="50" relative="1" as="geometry">
            <mxPoint x="90" y="130" as="sourcePoint" />
            <mxPoint x="130" y="190" as="targetPoint" />
          </mxGeometry>
        </mxCell>
        <mxCell id="ySn6C3Ql4K5Sra8jGcaf-6" value="" style="endArrow=classic;html=1;rounded=0;fontSize=10;entryX=-0.003;entryY=0.546;entryDx=0;entryDy=0;entryPerimeter=0;exitX=0.88;exitY=0.25;exitDx=0;exitDy=0;exitPerimeter=0;" parent="WIyWlLk6GJQsqaUBKTNV-1" target="ySn6C3Ql4K5Sra8jGcaf-4" edge="1" source="ySn6C3Ql4K5Sra8jGcaf-0">
          <mxGeometry width="50" height="50" relative="1" as="geometry">
            <mxPoint x="90" y="270" as="sourcePoint" />
            <mxPoint x="140" y="220" as="targetPoint" />
          </mxGeometry>
        </mxCell>
        <mxCell id="ySn6C3Ql4K5Sra8jGcaf-7" value="Shortening Service" style="rounded=1;whiteSpace=wrap;html=1;fontSize=10;" parent="WIyWlLk6GJQsqaUBKTNV-1" vertex="1">
          <mxGeometry x="370" y="100" width="100" height="50" as="geometry" />
        </mxCell>
        <mxCell id="ySn6C3Ql4K5Sra8jGcaf-8" value="Shortening Service" style="rounded=1;whiteSpace=wrap;html=1;fontSize=10;" parent="WIyWlLk6GJQsqaUBKTNV-1" vertex="1">
          <mxGeometry x="380" y="110" width="100" height="50" as="geometry" />
        </mxCell>
        <mxCell id="ySn6C3Ql4K5Sra8jGcaf-9" value="Shortening Service" style="rounded=1;whiteSpace=wrap;html=1;fontSize=10;" parent="WIyWlLk6GJQsqaUBKTNV-1" vertex="1">
          <mxGeometry x="390" y="120" width="100" height="50" as="geometry" />
        </mxCell>
        <mxCell id="ySn6C3Ql4K5Sra8jGcaf-10" value="Shortening Service" style="rounded=1;whiteSpace=wrap;html=1;fontSize=10;" parent="WIyWlLk6GJQsqaUBKTNV-1" vertex="1">
          <mxGeometry x="400" y="130" width="100" height="50" as="geometry" />
        </mxCell>
        <mxCell id="ySn6C3Ql4K5Sra8jGcaf-11" value="Cassandra" style="shape=cylinder3;whiteSpace=wrap;html=1;boundedLbl=1;backgroundOutline=1;size=15;fontSize=10;" parent="WIyWlLk6GJQsqaUBKTNV-1" vertex="1">
          <mxGeometry x="932.5" y="220" width="60" height="80" as="geometry" />
        </mxCell>
        <mxCell id="ySn6C3Ql4K5Sra8jGcaf-12" value="Cassandra" style="shape=cylinder3;whiteSpace=wrap;html=1;boundedLbl=1;backgroundOutline=1;size=15;fontSize=10;" parent="WIyWlLk6GJQsqaUBKTNV-1" vertex="1">
          <mxGeometry x="932.5" y="385" width="60" height="80" as="geometry" />
        </mxCell>
        <mxCell id="ySn6C3Ql4K5Sra8jGcaf-13" value="Cassandra" style="shape=cylinder3;whiteSpace=wrap;html=1;boundedLbl=1;backgroundOutline=1;size=15;fontSize=10;" parent="WIyWlLk6GJQsqaUBKTNV-1" vertex="1">
          <mxGeometry x="942.5" y="410" width="60" height="75" as="geometry" />
        </mxCell>
        <mxCell id="ySn6C3Ql4K5Sra8jGcaf-14" value="Cassandra" style="shape=cylinder3;whiteSpace=wrap;html=1;boundedLbl=1;backgroundOutline=1;size=15;fontSize=10;" parent="WIyWlLk6GJQsqaUBKTNV-1" vertex="1">
          <mxGeometry x="952.5" y="415" width="60" height="80" as="geometry" />
        </mxCell>
        <mxCell id="ySn6C3Ql4K5Sra8jGcaf-15" value="Cassandra" style="shape=cylinder3;whiteSpace=wrap;html=1;boundedLbl=1;backgroundOutline=1;size=15;fontSize=10;" parent="WIyWlLk6GJQsqaUBKTNV-1" vertex="1">
          <mxGeometry x="962.5" y="425" width="60" height="80" as="geometry" />
        </mxCell>
        <mxCell id="ySn6C3Ql4K5Sra8jGcaf-17" value="Read replicas" style="text;html=1;resizable=0;autosize=1;align=center;verticalAlign=middle;points=[];fillColor=none;strokeColor=none;rounded=0;fontSize=10;" parent="WIyWlLk6GJQsqaUBKTNV-1" vertex="1">
          <mxGeometry x="942.5" y="505" width="80" height="20" as="geometry" />
        </mxCell>
        <mxCell id="ySn6C3Ql4K5Sra8jGcaf-19" value="Write db" style="text;html=1;resizable=0;autosize=1;align=center;verticalAlign=middle;points=[];fillColor=none;strokeColor=none;rounded=0;fontSize=10;" parent="WIyWlLk6GJQsqaUBKTNV-1" vertex="1">
          <mxGeometry x="992.5" y="250" width="50" height="20" as="geometry" />
        </mxCell>
        <mxCell id="ySn6C3Ql4K5Sra8jGcaf-20" value="" style="endArrow=classic;html=1;rounded=0;fontSize=10;entryX=0.5;entryY=0;entryDx=0;entryDy=0;exitX=0.5;exitY=1;exitDx=0;exitDy=0;exitPerimeter=0;entryPerimeter=0;" parent="WIyWlLk6GJQsqaUBKTNV-1" source="ySn6C3Ql4K5Sra8jGcaf-11" target="ySn6C3Ql4K5Sra8jGcaf-12" edge="1">
          <mxGeometry width="50" height="50" relative="1" as="geometry">
            <mxPoint x="962.5" y="325" as="sourcePoint" />
            <mxPoint x="1022.5" y="275" as="targetPoint" />
          </mxGeometry>
        </mxCell>
        <mxCell id="ySn6C3Ql4K5Sra8jGcaf-21" value="Cache like Redis" style="ellipse;whiteSpace=wrap;html=1;fontSize=10;" parent="WIyWlLk6GJQsqaUBKTNV-1" vertex="1">
          <mxGeometry x="620" y="265" width="110" height="60" as="geometry" />
        </mxCell>
        <mxCell id="ySn6C3Ql4K5Sra8jGcaf-22" value="Write through strategy - LRU" style="text;html=1;resizable=0;autosize=1;align=center;verticalAlign=middle;points=[];fillColor=none;strokeColor=none;rounded=0;fontSize=10;" parent="WIyWlLk6GJQsqaUBKTNV-1" vertex="1">
          <mxGeometry x="615" y="235" width="140" height="20" as="geometry" />
        </mxCell>
        <mxCell id="9i1qgNekyrofTj8gUUyd-0" value="Redirect Service" style="rounded=1;whiteSpace=wrap;html=1;fontSize=10;" parent="WIyWlLk6GJQsqaUBKTNV-1" vertex="1">
          <mxGeometry x="380" y="390" width="100" height="50" as="geometry" />
        </mxCell>
        <mxCell id="9i1qgNekyrofTj8gUUyd-1" value="Redirect Service" style="rounded=1;whiteSpace=wrap;html=1;fontSize=10;" parent="WIyWlLk6GJQsqaUBKTNV-1" vertex="1">
          <mxGeometry x="390" y="400" width="100" height="50" as="geometry" />
        </mxCell>
        <mxCell id="9i1qgNekyrofTj8gUUyd-2" value="Redirect Service" style="rounded=1;whiteSpace=wrap;html=1;fontSize=10;" parent="WIyWlLk6GJQsqaUBKTNV-1" vertex="1">
          <mxGeometry x="400" y="410" width="100" height="50" as="geometry" />
        </mxCell>
        <mxCell id="9i1qgNekyrofTj8gUUyd-3" value="Redirect Service" style="rounded=1;whiteSpace=wrap;html=1;fontSize=10;" parent="WIyWlLk6GJQsqaUBKTNV-1" vertex="1">
          <mxGeometry x="410" y="420" width="100" height="50" as="geometry" />
        </mxCell>
        <mxCell id="9i1qgNekyrofTj8gUUyd-9" value="" style="endArrow=classic;startArrow=classic;html=1;rounded=0;fontSize=10;entryX=0;entryY=0.5;entryDx=0;entryDy=0;exitX=1.056;exitY=0.197;exitDx=0;exitDy=0;exitPerimeter=0;" parent="WIyWlLk6GJQsqaUBKTNV-1" source="9i1qgNekyrofTj8gUUyd-36" target="ySn6C3Ql4K5Sra8jGcaf-7" edge="1">
          <mxGeometry width="50" height="50" relative="1" as="geometry">
            <mxPoint x="180" y="190" as="sourcePoint" />
            <mxPoint x="280" y="190" as="targetPoint" />
          </mxGeometry>
        </mxCell>
        <mxCell id="9i1qgNekyrofTj8gUUyd-10" value="" style="endArrow=classic;startArrow=classic;html=1;rounded=0;fontSize=10;exitX=1.075;exitY=0.574;exitDx=0;exitDy=0;entryX=0;entryY=0.5;entryDx=0;entryDy=0;exitPerimeter=0;" parent="WIyWlLk6GJQsqaUBKTNV-1" source="9i1qgNekyrofTj8gUUyd-36" target="9i1qgNekyrofTj8gUUyd-0" edge="1">
          <mxGeometry width="50" height="50" relative="1" as="geometry">
            <mxPoint x="170.0000000000001" y="230.00000000000009" as="sourcePoint" />
            <mxPoint x="228" y="260" as="targetPoint" />
          </mxGeometry>
        </mxCell>
        <mxCell id="9i1qgNekyrofTj8gUUyd-13" value="" style="endArrow=classic;html=1;rounded=0;fontSize=10;entryX=0;entryY=0.5;entryDx=0;entryDy=0;entryPerimeter=0;exitX=1;exitY=0.267;exitDx=0;exitDy=0;exitPerimeter=0;" parent="WIyWlLk6GJQsqaUBKTNV-1" source="9i1qgNekyrofTj8gUUyd-25" target="ySn6C3Ql4K5Sra8jGcaf-11" edge="1">
          <mxGeometry width="50" height="50" relative="1" as="geometry">
            <mxPoint x="807.0399999999997" y="301" as="sourcePoint" />
            <mxPoint x="841.98" y="340" as="targetPoint" />
          </mxGeometry>
        </mxCell>
        <mxCell id="9i1qgNekyrofTj8gUUyd-14" value="Write" style="edgeLabel;html=1;align=center;verticalAlign=middle;resizable=0;points=[];fontSize=10;" parent="9i1qgNekyrofTj8gUUyd-13" vertex="1" connectable="0">
          <mxGeometry x="0.0721" relative="1" as="geometry">
            <mxPoint as="offset" />
          </mxGeometry>
        </mxCell>
        <mxCell id="9i1qgNekyrofTj8gUUyd-17" value="Cache cluster" style="text;html=1;resizable=0;autosize=1;align=center;verticalAlign=middle;points=[];fillColor=none;strokeColor=none;rounded=0;fontSize=10;" parent="WIyWlLk6GJQsqaUBKTNV-1" vertex="1">
          <mxGeometry x="655" y="350" width="80" height="20" as="geometry" />
        </mxCell>
        <mxCell id="9i1qgNekyrofTj8gUUyd-18" value="" style="endArrow=classic;startArrow=classic;html=1;rounded=0;fontSize=10;exitX=1;exitY=0.5;exitDx=0;exitDy=0;entryX=0.017;entryY=0.686;entryDx=0;entryDy=0;entryPerimeter=0;" parent="WIyWlLk6GJQsqaUBKTNV-1" source="9i1qgNekyrofTj8gUUyd-3" target="ySn6C3Ql4K5Sra8jGcaf-21" edge="1">
          <mxGeometry width="50" height="50" relative="1" as="geometry">
            <mxPoint x="407.60000000000014" y="308.4" as="sourcePoint" />
            <mxPoint x="428" y="285" as="targetPoint" />
          </mxGeometry>
        </mxCell>
        <mxCell id="9i1qgNekyrofTj8gUUyd-22" value="Read" style="edgeLabel;html=1;align=center;verticalAlign=middle;resizable=0;points=[];fontSize=10;" parent="9i1qgNekyrofTj8gUUyd-18" vertex="1" connectable="0">
          <mxGeometry x="0.0932" y="-1" relative="1" as="geometry">
            <mxPoint as="offset" />
          </mxGeometry>
        </mxCell>
        <mxCell id="9i1qgNekyrofTj8gUUyd-20" value="Write" style="endArrow=classic;html=1;rounded=0;fontSize=10;entryX=0.036;entryY=0.283;entryDx=0;entryDy=0;entryPerimeter=0;exitX=1.022;exitY=0.637;exitDx=0;exitDy=0;exitPerimeter=0;" parent="WIyWlLk6GJQsqaUBKTNV-1" source="ySn6C3Ql4K5Sra8jGcaf-10" target="ySn6C3Ql4K5Sra8jGcaf-21" edge="1">
          <mxGeometry width="50" height="50" relative="1" as="geometry">
            <mxPoint x="395.29999999999995" y="160.0999999999999" as="sourcePoint" />
            <mxPoint x="339.9999999999999" y="51.15999999999997" as="targetPoint" />
          </mxGeometry>
        </mxCell>
        <mxCell id="9i1qgNekyrofTj8gUUyd-21" value="" style="endArrow=classic;startArrow=classic;html=1;rounded=0;fontSize=10;exitX=0.945;exitY=0.767;exitDx=0;exitDy=0;entryX=0;entryY=0.5;entryDx=0;entryDy=0;entryPerimeter=0;exitPerimeter=0;" parent="WIyWlLk6GJQsqaUBKTNV-1" source="9i1qgNekyrofTj8gUUyd-25" target="ySn6C3Ql4K5Sra8jGcaf-12" edge="1">
          <mxGeometry width="50" height="50" relative="1" as="geometry">
            <mxPoint x="799.9999999999998" y="326.02" as="sourcePoint" />
            <mxPoint x="874.98" y="360" as="targetPoint" />
            <Array as="points" />
          </mxGeometry>
        </mxCell>
        <mxCell id="9i1qgNekyrofTj8gUUyd-23" value="Read" style="edgeLabel;html=1;align=center;verticalAlign=middle;resizable=0;points=[];fontSize=10;" parent="9i1qgNekyrofTj8gUUyd-21" vertex="1" connectable="0">
          <mxGeometry x="-0.0507" relative="1" as="geometry">
            <mxPoint as="offset" />
          </mxGeometry>
        </mxCell>
        <mxCell id="9i1qgNekyrofTj8gUUyd-24" value="Cache like Redis" style="ellipse;whiteSpace=wrap;html=1;fontSize=10;" parent="WIyWlLk6GJQsqaUBKTNV-1" vertex="1">
          <mxGeometry x="630" y="275" width="110" height="60" as="geometry" />
        </mxCell>
        <mxCell id="9i1qgNekyrofTj8gUUyd-25" value="Cache like Redis" style="ellipse;whiteSpace=wrap;html=1;fontSize=10;" parent="WIyWlLk6GJQsqaUBKTNV-1" vertex="1">
          <mxGeometry x="640" y="285" width="110" height="60" as="geometry" />
        </mxCell>
        <mxCell id="9i1qgNekyrofTj8gUUyd-32" value="Purging Service" style="rounded=1;whiteSpace=wrap;html=1;fontSize=10;" parent="WIyWlLk6GJQsqaUBKTNV-1" vertex="1">
          <mxGeometry x="910" y="90" width="90" height="40" as="geometry" />
        </mxCell>
        <mxCell id="9i1qgNekyrofTj8gUUyd-33" value="Purging Service" style="rounded=1;whiteSpace=wrap;html=1;fontSize=10;" parent="WIyWlLk6GJQsqaUBKTNV-1" vertex="1">
          <mxGeometry x="920" y="100" width="90" height="40" as="geometry" />
        </mxCell>
        <mxCell id="9i1qgNekyrofTj8gUUyd-34" value="" style="endArrow=classic;startArrow=classic;html=1;rounded=0;fontSize=10;entryX=0.5;entryY=0;entryDx=0;entryDy=0;exitX=0.5;exitY=1;exitDx=0;exitDy=0;entryPerimeter=0;" parent="WIyWlLk6GJQsqaUBKTNV-1" source="9i1qgNekyrofTj8gUUyd-33" target="ySn6C3Ql4K5Sra8jGcaf-11" edge="1">
          <mxGeometry width="50" height="50" relative="1" as="geometry">
            <mxPoint x="942.5" y="185.00000000000009" as="sourcePoint" />
            <mxPoint x="1000.1399999999999" y="192.6" as="targetPoint" />
          </mxGeometry>
        </mxCell>
        <mxCell id="9i1qgNekyrofTj8gUUyd-35" value="1 Month" style="text;html=1;align=center;verticalAlign=middle;resizable=0;points=[];autosize=1;strokeColor=none;fillColor=none;fontSize=10;" parent="WIyWlLk6GJQsqaUBKTNV-1" vertex="1">
          <mxGeometry x="1005" y="110" width="50" height="20" as="geometry" />
        </mxCell>
        <mxCell id="9i1qgNekyrofTj8gUUyd-36" value="load balancer" style="rounded=0;whiteSpace=wrap;html=1;fontSize=10;" parent="WIyWlLk6GJQsqaUBKTNV-1" vertex="1">
          <mxGeometry x="210" y="120" width="40" height="380" as="geometry" />
        </mxCell>
        <mxCell id="9i1qgNekyrofTj8gUUyd-38" value="Hash algorithm" style="text;html=1;align=center;verticalAlign=middle;resizable=0;points=[];autosize=1;strokeColor=none;fillColor=none;fontSize=10;" parent="WIyWlLk6GJQsqaUBKTNV-1" vertex="1">
          <mxGeometry x="445" y="135" width="80" height="20" as="geometry" />
        </mxCell>
        <mxCell id="9i1qgNekyrofTj8gUUyd-40" value="Redirect Service" style="rounded=1;whiteSpace=wrap;html=1;fontSize=10;" parent="WIyWlLk6GJQsqaUBKTNV-1" vertex="1">
          <mxGeometry x="420" y="430" width="100" height="50" as="geometry" />
        </mxCell>
        <mxCell id="9i1qgNekyrofTj8gUUyd-41" value="Redirect Service" style="rounded=1;whiteSpace=wrap;html=1;fontSize=10;" parent="WIyWlLk6GJQsqaUBKTNV-1" vertex="1">
          <mxGeometry x="430" y="440" width="100" height="50" as="geometry" />
        </mxCell>
        <mxCell id="9i1qgNekyrofTj8gUUyd-42" value="Redirect Service" style="rounded=1;whiteSpace=wrap;html=1;fontSize=10;" parent="WIyWlLk6GJQsqaUBKTNV-1" vertex="1">
          <mxGeometry x="440" y="450" width="100" height="50" as="geometry" />
        </mxCell>
        <mxCell id="9i1qgNekyrofTj8gUUyd-43" value="80 20 rule" style="text;html=1;align=center;verticalAlign=middle;resizable=0;points=[];autosize=1;strokeColor=none;fillColor=none;fontSize=10;" parent="WIyWlLk6GJQsqaUBKTNV-1" vertex="1">
          <mxGeometry x="550" y="50" width="60" height="20" as="geometry" />
        </mxCell>
      </root>
    </mxGraphModel>
  </diagram>
</mxfile>
